<svg width="256" height="256" viewBox="0 0 256 256" fill="none" xmlns="http://www.w3.org/2000/svg">
<g clip-path="url(#clip0_415_2)">
<path d="M208.31 75.6799C210.755 67.7918 211.54 59.4827 210.614 51.2764C209.688 43.0701 207.072 35.1447 202.93 27.9999C202.228 26.7835 201.218 25.7734 200.001 25.0712C198.785 24.3691 197.405 23.9996 196 23.9999C186.682 23.9804 177.488 26.1405 169.154 30.3077C160.82 34.4749 153.575 40.5337 148 47.9999H124C118.425 40.5337 111.18 34.4749 102.846 30.3077C94.5117 26.1405 85.3181 23.9804 76 23.9999C74.5954 23.9996 73.2155 24.3691 71.999 25.0712C70.7825 25.7734 69.7723 26.7835 69.07 27.9999C64.9285 35.1447 62.3123 43.0701 61.3863 51.2764C60.4603 59.4827 61.2447 67.7918 63.69 75.6799C58.7473 84.307 56.0996 94.0576 56 104V112C56.0168 125.536 60.9307 138.609 69.8342 148.804C78.7377 159 91.0296 165.63 104.44 167.47C98.9661 174.475 95.9949 183.11 96 192V200H72C65.6348 200 59.5303 197.471 55.0294 192.97C50.5286 188.47 48 182.365 48 176C48 170.747 46.9654 165.546 44.9552 160.693C42.945 155.84 39.9986 151.43 36.2843 147.716C32.5699 144.001 28.1604 141.055 23.3073 139.045C18.4543 137.035 13.2529 136 8 136C5.87827 136 3.84344 136.843 2.34315 138.343C0.842855 139.843 0 141.878 0 144C0 146.122 0.842855 148.156 2.34315 149.657C3.84344 151.157 5.87827 152 8 152C14.3652 152 20.4697 154.528 24.9706 159.029C29.4714 163.53 32 169.635 32 176C32 186.609 36.2143 196.783 43.7157 204.284C51.2172 211.786 61.3913 216 72 216H96V232C96 234.122 96.8429 236.156 98.3431 237.657C99.8434 239.157 101.878 240 104 240C106.122 240 108.157 239.157 109.657 237.657C111.157 236.156 112 234.122 112 232V192C112 185.635 114.529 179.53 119.029 175.029C123.53 170.528 129.635 168 136 168C142.365 168 148.47 170.528 152.971 175.029C157.471 179.53 160 185.635 160 192V232C160 234.122 160.843 236.156 162.343 237.657C163.843 239.157 165.878 240 168 240C170.122 240 172.157 239.157 173.657 237.657C175.157 236.156 176 234.122 176 232V192C176.005 183.11 173.034 174.475 167.56 167.47C180.97 165.63 193.262 159 202.166 148.804C211.069 138.609 215.983 125.536 216 112V104C215.9 94.0576 213.253 84.307 208.31 75.6799ZM200 112C200 122.609 195.786 132.783 188.284 140.284C180.783 147.786 170.609 152 160 152H112C101.391 152 91.2172 147.786 83.7157 140.284C76.2143 132.783 72 122.609 72 112V104C72.0981 96.0001 74.4931 88.1971 78.9 81.5199C79.7215 80.4371 80.2536 79.1628 80.446 77.8174C80.6385 76.4719 80.485 75.0996 80 73.8299C77.9162 68.4559 76.9134 62.7235 77.0489 56.9612C77.1845 51.1989 78.4558 45.52 80.79 40.2499C87.3372 40.9542 93.6418 43.123 99.2367 46.5956C104.832 50.0682 109.573 54.7554 113.11 60.3099C113.831 61.4369 114.823 62.3652 115.995 63.0099C117.167 63.6545 118.482 63.9949 119.82 63.9999H152.17C153.513 63.9999 154.834 63.6619 156.012 63.0171C157.19 62.3722 158.187 61.4412 158.91 60.3099C162.446 54.7549 167.188 50.0673 172.783 46.5947C178.378 43.122 184.683 40.9535 191.23 40.2499C193.561 45.5213 194.829 51.2009 194.961 56.9632C195.093 62.7254 194.087 68.4572 192 73.8299C191.516 75.0874 191.355 76.4458 191.529 77.7818C191.704 79.1177 192.209 80.3889 193 81.4799C197.451 88.1571 199.881 95.9762 200 104V112Z" fill="black"/>
</g>
<defs>
<clipPath id="clip0_415_2">
<rect width="256" height="256" fill="white"/>
</clipPath>
</defs>
</svg>
