<svg width="100" height="100" viewBox="0 0 100 100" fill="none" xmlns="http://www.w3.org/2000/svg">
<g clip-path="url(#clip0_415_2)">
<path d="M81.3711 29.5626C82.3263 26.4813 82.6327 23.2355 82.271 20.0299C81.9093 16.8244 80.8873 13.7285 79.2695 10.9376C78.9952 10.4624 78.6006 10.0678 78.1254 9.79355C77.6502 9.51926 77.1112 9.37493 76.5625 9.37505C72.9226 9.36743 69.3314 10.2112 66.0757 11.8391C62.8201 13.4669 59.9903 15.8336 57.8125 18.7501H48.4375C46.2597 15.8336 43.4299 13.4669 40.1742 11.8391C36.9186 10.2112 33.3274 9.36743 29.6875 9.37505C29.1388 9.37493 28.5998 9.51926 28.1246 9.79355C27.6494 10.0678 27.2548 10.4624 26.9805 10.9376C25.3627 13.7285 24.3407 16.8244 23.979 20.0299C23.6173 23.2355 23.9237 26.4813 24.8789 29.5626C22.9482 32.9325 21.9139 36.7414 21.875 40.6251V43.7501C21.8816 49.0376 23.8011 54.1441 27.279 58.1268C30.7569 62.1095 35.5584 64.6993 40.7969 65.418C38.6586 68.1542 37.498 71.5275 37.5 75.0001V78.1251H28.125C25.6386 78.1251 23.254 77.1373 21.4959 75.3792C19.7377 73.621 18.75 71.2365 18.75 68.7501C18.75 66.6981 18.3458 64.6663 17.5606 62.7706C16.7754 60.8749 15.6245 59.1524 14.1735 57.7015C12.7226 56.2506 11.0001 55.0997 9.10443 54.3144C7.20872 53.5292 5.1769 53.1251 3.125 53.1251C2.2962 53.1251 1.50134 53.4543 0.915291 54.0403C0.32924 54.6264 0 55.4212 0 56.2501C0 57.0789 0.32924 57.8737 0.915291 58.4598C1.50134 59.0458 2.2962 59.3751 3.125 59.3751C5.6114 59.3751 7.99597 60.3628 9.75413 62.1209C11.5123 63.8791 12.5 66.2636 12.5 68.7501C12.5 72.8941 14.1462 76.8683 17.0765 79.7986C20.0067 82.7289 23.981 84.3751 28.125 84.3751H37.5V90.6251C37.5 91.4539 37.8292 92.2487 38.4153 92.8348C39.0013 93.4208 39.7962 93.7501 40.625 93.7501C41.4538 93.7501 42.2487 93.4208 42.8347 92.8348C43.4208 92.2487 43.75 91.4539 43.75 90.6251V75.0001C43.75 72.5136 44.7377 70.1291 46.4959 68.3709C48.254 66.6128 50.6386 65.6251 53.125 65.6251C55.6114 65.6251 57.996 66.6128 59.7541 68.3709C61.5123 70.1291 62.5 72.5136 62.5 75.0001V90.6251C62.5 91.4539 62.8292 92.2487 63.4153 92.8348C64.0013 93.4208 64.7962 93.7501 65.625 93.7501C66.4538 93.7501 67.2487 93.4208 67.8347 92.8348C68.4208 92.2487 68.75 91.4539 68.75 90.6251V75.0001C68.752 71.5275 67.5914 68.1542 65.4531 65.418C70.6916 64.6993 75.4931 62.1095 78.971 58.1268C82.4489 54.1441 84.3684 49.0376 84.375 43.7501V40.6251C84.3361 36.7414 83.3018 32.9325 81.3711 29.5626ZM78.125 43.7501C78.125 47.8941 76.4788 51.8683 73.5485 54.7986C70.6183 57.7289 66.644 59.3751 62.5 59.3751H43.75C39.606 59.3751 35.6317 57.7289 32.7015 54.7986C29.7712 51.8683 28.125 47.8941 28.125 43.7501V40.6251C28.1633 37.5001 29.0989 34.4521 30.8203 31.8438C31.1412 31.4208 31.3491 30.9231 31.4242 30.3975C31.4994 29.8719 31.4395 29.3359 31.25 28.8399C30.436 26.7407 30.0443 24.5014 30.0972 22.2506C30.1502 19.9997 30.6468 17.7813 31.5586 15.7227C34.1161 15.9978 36.5788 16.845 38.7643 18.2015C40.9498 19.558 42.802 21.3889 44.1836 23.5586C44.4651 23.9989 44.8526 24.3615 45.3105 24.6133C45.7684 24.8651 46.2821 24.9981 46.8047 25.0001H59.4414C59.966 25.0001 60.4821 24.868 60.9422 24.6161C61.4023 24.3642 61.7916 24.0006 62.0742 23.5586C63.4556 21.3887 65.3077 19.5576 67.4932 18.2011C69.6788 16.8446 72.1417 15.9976 74.6992 15.7227C75.6098 17.7819 76.105 20.0004 76.1566 22.2513C76.2083 24.5022 75.8152 26.7412 75 28.8399C74.8111 29.3311 74.7479 29.8617 74.8161 30.3836C74.8844 30.9054 75.0818 31.402 75.3906 31.8282C77.1291 34.4365 78.0785 37.4908 78.125 40.6251V43.7501Z" fill="black"/>
</g>
<defs>
<clipPath id="clip0_415_2">
<rect width="100" height="100" fill="white"/>
</clipPath>
</defs>
</svg>
